<svg width="325" height="325" fill="none" xmlns="http://www.w3.org/2000/svg"><style>@media (prefers-color-scheme:dark){.prefix__a{fill:#7e6895}.prefix__b{stroke:#7e6895}}</style><g clip-path="url(#prefix__clip0_6_20)"><path class="prefix__a" d="M76.111 254.394c0-17.059 3.674-31.631 11.022-43.714h3.2a45.771 45.771 0 0 0-.355 5.686c0 16.349 5.807 30.683 17.422 43.004 11.852 12.084 27.97 18.126 48.356 18.126 15.881 0 28.207-3.791 36.977-11.373 9.008-7.582 13.511-17.178 13.511-28.788 0-13.979-9.481-26.182-28.444-36.607l-61.867-40.871c-12.326-7.108-21.215-15.638-26.666-25.589-5.215-10.189-7.823-20.495-7.823-30.921 0-22.271 6.993-39.45 20.978-51.533 14.222-12.084 32.356-18.126 54.4-18.126 13.037 0 29.156 1.185 48.356 3.554h22.4l-4.622 52.245H219.4c0-12.32-4.622-22.154-13.867-29.499-9.007-7.582-21.096-11.373-36.266-11.373-18.489 0-31.882 5.687-40.178 17.06-4.267 5.45-6.4 11.61-6.4 18.48 0 11.373 8.296 21.917 24.889 31.632l67.911 44.07c21.333 12.32 32 30.446 32 54.377 0 25.352-8.652 44.78-25.956 58.286-17.066 13.268-39.822 19.902-68.266 19.902-16.119 0-31.052-1.895-44.8-5.686C94.956 282.708 85 277.377 78.6 270.743c-1.66-4.502-2.489-9.951-2.489-16.349z" fill="#0D022C"/><path class="prefix__b" d="m176.51 207.781-21.972-9.741-41.915 23.444-3.237 23.842m67.124-37.545-10.096 60.725m10.096-60.725-67.124 37.545m57.028 23.18-57.028-23.18m57.028 23.18-36.052-34.913m36.052 34.913-10.88-48.992" stroke="#0D022C" stroke-width="6" stroke-linecap="round" stroke-linejoin="round"/><path class="prefix__b" d="m112.623 221.484 17.739 12.109 3.2-23.82 21.972 9.741-.996-21.474" stroke="#0D022C" stroke-width="6" stroke-linecap="round" stroke-linejoin="round"/></g><defs><clipPath id="prefix__clip0_6_20"><path fill="#fff" d="M0 0h325v325H0z"/></clipPath></defs></svg>